<svg width="132" height="31" viewBox="0 0 132 31" fill="none" xmlns="http://www.w3.org/2000/svg">
<path d="M0 30.014H29.7271V0.0063477H0V30.014ZM24.0054 12.1229H17.7239V5.78208H24.0054V12.1229ZM5.72059 5.78208H12.0056V17.8974H24.0054V24.2382H5.72059V5.78208ZM49.0851 0.0063477C46.1453 0.0063477 43.2716 0.886314 40.8273 2.53495C38.383 4.18359 36.4779 6.52687 35.3529 9.26846C34.2279 12.0101 33.9337 15.0268 34.5071 17.9372C35.0807 20.8477 36.4962 23.5211 38.5749 25.6194C40.6536 27.7178 43.3021 29.1467 46.1853 29.7257C49.0687 30.3046 52.0571 30.0075 54.7731 28.8719C57.4891 27.7363 59.8104 25.8132 61.4437 23.3458C63.0769 20.8784 63.9487 17.9776 63.9487 15.0102C63.944 11.0323 62.3766 7.21875 59.5901 4.406C56.8036 1.59324 53.0258 0.0109922 49.0851 0.0063477ZM49.0851 24.2382C47.277 24.2382 45.5095 23.697 44.0061 22.683C42.5028 21.669 41.331 20.2278 40.6391 18.5416C39.9472 16.8554 39.7662 15 40.1189 13.2098C40.4717 11.4198 41.3424 9.77549 42.6208 8.48492C43.8994 7.19436 45.5283 6.31547 47.3016 5.9594C49.0749 5.60333 50.913 5.78608 52.5835 6.48453C54.2539 7.18297 55.6818 8.36576 56.6862 9.88335C57.6908 11.4008 58.2269 13.185 58.2269 15.0102C58.2232 17.4565 57.2589 19.8015 55.5452 21.5313C53.8316 23.2611 51.5085 24.2345 49.0851 24.2382ZM117.138 0.0063477C114.197 0.00612542 111.324 0.88588 108.879 2.53438C106.435 4.18288 104.53 6.52607 103.405 9.26764C102.279 12.0092 101.985 15.0261 102.558 17.9365C103.132 20.8471 104.547 23.5206 106.626 25.619C108.704 27.7175 111.353 29.1466 114.237 29.7256C117.119 30.3046 120.108 30.0075 122.825 28.872C125.54 27.7364 127.861 25.8134 129.494 23.3459C131.128 20.8785 132 17.9777 132 15.0102C131.995 11.0325 130.428 7.21912 127.642 4.40641C124.856 1.59369 121.078 0.011308 117.138 0.0063477ZM117.138 24.2382C115.33 24.2385 113.562 23.6974 112.058 22.6836C110.555 21.6697 109.383 20.2285 108.691 18.5424C107.999 16.8562 107.818 15.0007 108.17 13.2105C108.523 11.4205 109.393 9.77608 110.672 8.48534C111.95 7.19465 113.58 6.31564 115.353 5.95948C117.126 5.60332 118.964 5.786 120.634 6.48442C122.305 7.18283 123.733 8.36561 124.738 9.88324C125.742 11.4008 126.278 13.185 126.278 15.0102C126.275 17.4563 125.311 19.8011 123.596 21.5309C121.884 23.2607 119.561 24.2342 117.138 24.2382ZM83.1108 0.0063477C80.171 0.0063477 77.2972 0.886314 74.853 2.53495C72.4087 4.18359 70.5036 6.52687 69.3786 9.26846C68.2536 12.0101 67.9593 15.0268 68.5328 17.9372C69.1064 20.8477 70.5219 23.5211 72.6006 25.6194C74.6793 27.7178 77.3277 29.1467 80.211 29.7257C83.0942 30.3046 86.0828 30.0075 88.7988 28.8719C91.5148 27.7363 93.8361 25.8132 95.4694 23.3458C97.1026 20.8784 97.9743 17.9776 97.9743 15.0102C97.9697 11.0323 96.4022 7.21875 93.6158 4.406C90.8293 1.59324 87.0514 0.0109922 83.1108 0.0063477ZM83.1108 24.2382C81.4261 24.239 79.7742 23.77 78.3369 22.8829C76.8998 21.9958 75.7334 20.7252 74.9665 19.2111C74.1997 17.697 73.8621 15.9985 73.9912 14.3031C74.1203 12.6076 74.7109 10.9811 75.698 9.60305C76.6851 8.22511 78.0302 7.14922 79.5847 6.4942C81.1393 5.83917 82.8429 5.63049 84.5076 5.89116C86.1723 6.15185 87.7331 6.87175 89.0181 7.97143C90.303 9.0711 91.2619 10.5078 91.789 12.1229H83.1108V17.8974H91.789C91.1853 19.7404 90.0222 21.3447 88.4644 22.4828C86.9068 23.621 85.0337 24.2351 83.1108 24.2382Z" fill="#F2C94C"/>
</svg>
